HIERARCHY
ROOT joint_Root
{
	OFFSET 0.0 0.0 0.0
	CHANNELS 6 Xposition Yposition Zposition Zrotation Xrotation Yrotation 
	JOINT Hips
	{
		OFFSET 4.5925 91.4895 -427.239
		CHANNELS 6 Xposition Yposition Zposition Zrotation Xrotation Yrotation 
		JOINT Spine
		{
			OFFSET 15.7357 0.0 0.0
			CHANNELS 6 Xposition Yposition Zposition Zrotation Xrotation Yrotation 
			JOINT Chest
			{
				OFFSET 8.98455 -0.406207 0.0
				CHANNELS 6 Xposition Yposition Zposition Zrotation Xrotation Yrotation 
				JOINT Neck
				{
					OFFSET 16.3773 0.0 0.0
					CHANNELS 6 Xposition Yposition Zposition Zrotation Xrotation Yrotation 
					JOINT Head
					{
						OFFSET 6.45672 0.0 0.0
						CHANNELS 6 Xposition Yposition Zposition Zrotation Xrotation Yrotation 
						End Site
						{
							OFFSET 0.0 0.0 0.0
						}
					}
				}
				JOINT Shoulder_L
				{
					OFFSET 12.9942 -0.242716 4.98039
					CHANNELS 6 Xposition Yposition Zposition Zrotation Xrotation Yrotation 
					JOINT UpperArm_L
					{
						OFFSET 5.34809 0.0 0.0
						CHANNELS 6 Xposition Yposition Zposition Zrotation Xrotation Yrotation 
						JOINT LowerArm_L
						{
							OFFSET 24.3286 1.87007e-05 0.0
							CHANNELS 6 Xposition Yposition Zposition Zrotation Xrotation Yrotation 
							JOINT Hand_L
							{
								OFFSET 22.2916 0.0 0.0
								CHANNELS 6 Xposition Yposition Zposition Zrotation Xrotation Yrotation 
								End Site
								{
									OFFSET 0.0 0.0 0.0
								}
							}
						}
					}
				}
				JOINT Shoulder_R
				{
					OFFSET 12.9945 -0.242716 -4.98039
					CHANNELS 6 Xposition Yposition Zposition Zrotation Xrotation Yrotation 
					JOINT UpperArm_R
					{
						OFFSET -5.34813 0.0 0.0
						CHANNELS 6 Xposition Yposition Zposition Zrotation Xrotation Yrotation 
						JOINT LowerArm_R
						{
							OFFSET -24.3289 0.000322201 0.0
							CHANNELS 6 Xposition Yposition Zposition Zrotation Xrotation Yrotation 
							JOINT Hand_R
							{
								OFFSET -22.2915 -0.000108084 0.0
								CHANNELS 6 Xposition Yposition Zposition Zrotation Xrotation Yrotation 
								End Site
								{
									OFFSET 0.0 0.0 0.0
								}
							}
						}
					}
				}
			}
		}
		JOINT UpperLeg_L
		{
			OFFSET -2.19248 -6.46944 0.0
			CHANNELS 6 Xposition Yposition Zposition Zrotation Xrotation Yrotation 
			JOINT LowerLeg_L
			{
				OFFSET 39.0811 0.0 -1.23785e-05
				CHANNELS 6 Xposition Yposition Zposition Zrotation Xrotation Yrotation 
				JOINT Foot_L
				{
					OFFSET 40.9854 0.0 -1.26872e-05
					CHANNELS 6 Xposition Yposition Zposition Zrotation Xrotation Yrotation 
					JOINT Toes_L
					{
						OFFSET 11.7543 0.0 0.0
						CHANNELS 6 Xposition Yposition Zposition Zrotation Xrotation Yrotation 
						End Site
						{
							OFFSET 0.0 0.0 0.0
						}
					}
				}
			}
		}
		JOINT UpperLeg_R
		{
			OFFSET -2.19251 6.46944 0.0
			CHANNELS 6 Xposition Yposition Zposition Zrotation Xrotation Yrotation 
			JOINT LowerLeg_R
			{
				OFFSET -39.0811 -0.00228153 -0.0401928
				CHANNELS 6 Xposition Yposition Zposition Zrotation Xrotation Yrotation 
				JOINT Foot_R
				{
					OFFSET -40.9854 0.0 0.0
					CHANNELS 6 Xposition Yposition Zposition Zrotation Xrotation Yrotation 
					JOINT Toes_R
					{
						OFFSET -11.7543 0.0 0.0
						CHANNELS 6 Xposition Yposition Zposition Zrotation Xrotation Yrotation 
						End Site
						{
							OFFSET 0.0 0.0 0.0
						}
					}
				}
			}
		}
	}
}
MOTION
Frames:	4
Frame Time:	0.0333333
0.000000 0.000000 0.000000 0.000000 0.000000 -0.000000 87.867700 88.805000 185.268000 -85.752800 53.181600 178.129000 15.735700 0.000005 -0.000001 91.089000 81.762500 -90.558800 8.984550 -0.406207 -0.000000 8.704920 0.315910 1.035380 16.377300 -0.000001 -0.000001 3.907500 10.892300 -2.339990 6.456720 -0.000001 -0.000000 -0.307348 17.016300 -2.807590 12.994200 -0.242716 4.980390 -90.869700 2.541250 -71.099700 5.348090 -0.000007 -0.000001 -62.123400 33.592300 -22.909800 24.328600 0.000019 0.000005 12.969900 11.973000 -47.989600 22.291600 -0.000001 0.000005 15.194100 5.260130 1.163410 12.994500 -0.242716 -4.980390 88.299400 9.748780 -80.055200 -5.348130 -0.000001 -0.000004 -61.236200 30.551000 -10.959200 -24.328900 0.000322 -0.000009 -0.151398 -0.295094 -26.994600 -22.291500 -0.000108 -0.000004 12.823100 5.369750 -1.978870 -2.192480 -6.469440 -0.000000 -178.558000 4.436580 -7.671070 39.081100 -0.000007 -0.000012 -0.457960 0.591476 37.750600 40.985400 -0.000006 -0.000013 3.664560 2.168330 -78.912900 11.754300 -0.000000 0.000003 -0.009601 -0.015693 -16.685900 -2.192510 6.469440 -0.000001 178.211000 15.259200 154.317000 -39.081100 -0.002282 -0.040193 -0.007792 0.018402 31.079000 -40.985400 0.000008 0.000006 -2.376380 11.290900 -53.397500 -11.754300 -0.000006 -0.000006 -0.012779 -0.123350 -21.602700
0.000000 0.000000 0.000000 0.000000 0.000000 -0.000000 90.639500 88.502200 184.703000 -85.826200 50.976700 178.205000 15.735700 0.000005 -0.000001 92.000800 81.711200 -91.207200 8.984550 -0.406207 -0.000000 8.798310 0.583013 1.540990 16.377300 -0.000001 -0.000001 3.916040 10.625600 -2.207430 6.456720 -0.000001 -0.000000 -0.013481 16.353800 -2.882560 12.994200 -0.242716 4.980390 -90.964600 2.796470 -70.961100 5.348090 -0.000007 -0.000001 -62.943900 33.464300 -22.129700 24.328600 0.000019 0.000005 13.035300 12.024200 -48.018300 22.291600 -0.000001 0.000005 15.387700 5.256880 1.250420 12.994500 -0.242716 -4.980390 88.235600 10.197400 -80.129300 -5.348130 -0.000001 -0.000004 -59.926200 31.574600 -12.421100 -24.328900 0.000322 -0.000009 -0.233187 -0.457059 -26.923500 -22.291500 -0.000108 -0.000004 12.918000 5.364330 -1.811840 -2.192480 -6.469440 -0.000000 -178.287000 5.252770 -6.883790 39.081100 -0.000007 -0.000012 0.014042 -0.017124 39.348300 40.985400 -0.000006 -0.000013 7.843990 1.359470 -79.507200 11.754300 -0.000000 0.000003 -2.427390 -3.154380 -16.873100 -2.192510 6.469440 -0.000001 178.276000 16.152900 154.217000 -39.081100 -0.002282 -0.040193 -0.057179 0.084803 35.490700 -40.985400 0.000008 0.000006 -1.693120 9.911710 -57.752900 -11.754300 -0.000006 -0.000006 -0.008516 -0.092192 -20.327700
0.000000 0.000000 0.000000 0.000000 0.000000 -0.000000 93.345200 88.414300 183.997000 -86.580900 48.795200 179.495000 15.735700 0.000005 -0.000001 92.120800 81.413500 -91.221400 8.984550 -0.406207 -0.000000 9.391130 0.644650 1.744320 16.377300 -0.000001 -0.000001 3.979990 10.306200 -1.874330 6.456720 -0.000001 -0.000000 0.083654 15.855500 -2.926180 12.994200 -0.242716 4.980390 -91.003600 2.895570 -70.875500 5.348090 -0.000007 -0.000001 -64.581700 33.020500 -20.619600 24.328600 0.000019 0.000005 12.476500 12.102900 -46.540900 22.291600 -0.000001 0.000005 16.019600 5.265320 1.024650 12.994500 -0.242716 -4.980390 88.237200 10.392400 -80.317700 -5.348130 -0.000001 -0.000004 -58.562300 32.429800 -14.572700 -24.328900 0.000322 -0.000009 -0.209108 -0.420478 -26.322800 -22.291500 -0.000108 -0.000004 13.262900 5.364350 -1.812950 -2.192480 -6.469440 -0.000000 -177.706000 5.486540 -8.112540 39.081100 -0.000007 -0.000012 0.011651 -0.011815 44.593900 40.985400 -0.000006 -0.000013 7.142760 3.525140 -75.487300 11.754300 -0.000000 0.000003 -0.048979 -0.145347 -20.852700 -2.192510 6.469440 -0.000001 177.629000 16.913000 155.812000 -39.081100 -0.002282 -0.040193 -0.126694 0.164723 38.275800 -40.985400 0.000008 0.000006 -1.319040 8.731410 -61.412100 -11.754300 -0.000006 -0.000006 -0.005961 -0.070484 -19.441600
0.000000 0.000000 0.000000 0.000000 0.000000 -0.000000 95.909100 88.494300 183.319000 -87.479400 45.946100 -179.197000 15.735700 0.000005 -0.000001 91.779000 81.187000 -90.847300 8.984550 -0.406207 -0.000000 9.847880 0.560748 1.813780 16.377300 -0.000001 -0.000001 4.048360 9.652870 -1.415190 6.456720 -0.000001 -0.000000 0.148651 15.107500 -2.511110 12.994200 -0.242716 4.980390 -90.924700 2.702040 -71.100400 5.348090 -0.000007 -0.000001 -65.756300 33.495900 -19.577700 24.328600 0.000019 0.000005 10.991900 11.889300 -43.312300 22.291600 -0.000001 0.000005 16.811300 5.260030 1.166160 12.994500 -0.242716 -4.980390 88.255200 10.174700 -80.216300 -5.348130 -0.000001 -0.000004 -58.161000 32.091500 -16.335300 -24.328900 0.000322 -0.000009 0.080870 0.167957 -26.001700 -22.291500 -0.000108 -0.000004 13.334100 5.354050 -1.499240 -2.192480 -6.469440 -0.000000 -176.851000 5.161480 -11.116100 39.081100 -0.000007 -0.000012 0.025535 -0.020337 51.458800 40.985400 -0.000006 -0.000013 5.855680 6.821520 -69.346600 11.754300 -0.000000 0.000003 -0.043773 -0.274825 -27.877600 -2.192510 6.469440 -0.000001 176.963000 19.107500 158.020000 -39.081100 -0.002282 -0.040193 -0.171206 0.209852 39.742600 -40.985400 0.000008 0.000006 -0.832917 8.171820 -64.379100 -11.754300 -0.000006 -0.000006 -0.004363 -0.055165 -18.817300
